<?xml version="1.0" standalone="no"?><!-- Generator: Gravit.io --><svg xmlns="http://www.w3.org/2000/svg" xmlns:xlink="http://www.w3.org/1999/xlink" style="isolation:isolate" viewBox="0 0 400 800" width="400" height="800"><defs><clipPath id="_clipPath_0uLv2hucyqQEdGQZecJeTIFABWAtAr51"><rect width="400" height="800"/></clipPath></defs><g clip-path="url(#_clipPath_0uLv2hucyqQEdGQZecJeTIFABWAtAr51)"><clipPath id="_clipPath_qKwnTHh7zCHrY0JFpkUJMND3tIr59ZgW"><rect x="0" y="0" width="400" height="800" transform="matrix(1,0,0,1,0,0)" fill="rgb(255,255,255)"/></clipPath><g clip-path="url(#_clipPath_qKwnTHh7zCHrY0JFpkUJMND3tIr59ZgW)"><g id="Group"><g id="Group"><rect x="0" y="0" width="400" height="800" transform="matrix(1,0,0,1,0,0)" fill="rgb(1,17,19)"/><path d=" M 200 500 L 250 550 L 400 700 L 400 400 L 200 400 L 200 500 L 200 500 Z " fill="rgb(1,23,25)"/><path d=" M 200 300 L 250 250 L 400 100 L 400 400 L 200 400 L 200 300 L 200 300 Z " fill="rgb(11,32,34)"/><path d=" M 200 300 L 150 250 L 0 100 L 0 400 L 200 400 L 200 300 L 200 300 Z " fill="rgb(9,30,32)"/><path d=" M 200 500 L 150 550 L 0 700 L 0 400 L 200 400 L 200 500 L 200 500 Z " fill="rgb(3,26,28)"/><path d=" M 0 400 L 0 200 L 100 300 L 200 400 L 0 400 L 0 400 Z " fill="rgb(1,23,25)"/><path d=" M 0 400 L 0 600 L 100 500 L 200 400 L 0 400 L 0 400 Z " fill="rgb(11,32,34)"/><path d=" M 400 400 L 400 600 L 300 500 L 200 400 L 400 400 L 400 400 Z " fill="rgb(9,30,32)"/><path d=" M 400 400 L 400 200 L 300 300 L 200 400 L 400 400 L 400 400 Z " fill="rgb(3,26,28)"/><path d=" M 0 100 L 400 100 L 200 300 L 0 100 Z " fill="rgb(1,17,19)"/><path d=" M 400 700 L 0 700 L 200 500 L 400 700 Z " fill="rgb(1,17,19)"/><path d=" M 0 500 L 0 300 L 100 400 L 0 500 Z " fill="rgb(1,17,19)"/><path d=" M 400 300 L 400 500 L 300 400 L 400 300 Z " fill="rgb(1,17,19)"/></g></g></g></g></svg>