<?xml version="1.0" standalone="no"?><!-- Generator: Gravit.io --><svg xmlns="http://www.w3.org/2000/svg" xmlns:xlink="http://www.w3.org/1999/xlink" style="isolation:isolate" viewBox="0 0 400 800" width="400" height="800"><defs><clipPath id="_clipPath_9sD1zGvZYque4JJS7SsN7Q4GChIzJulA"><rect width="400" height="800"/></clipPath></defs><g clip-path="url(#_clipPath_9sD1zGvZYque4JJS7SsN7Q4GChIzJulA)"><g id="Group"><rect x="0" y="0" width="400" height="800" transform="matrix(1,0,0,1,0,0)" fill="rgb(34,34,34)"/><path d=" M 200 500 L 250 550 L 400 700 L 400 400 L 200 400 L 200 500 Z " fill="rgb(36,36,36)"/><path d=" M 200 300 L 250 250 L 400 100 L 400 400 L 200 400 L 200 300 Z " fill="rgb(56,56,56)"/><path d=" M 200 300 L 150 250 L 0 100 L 0 400 L 200 400 L 200 300 Z " fill="rgb(45,45,45)"/><path d=" M 200 500 L 150 550 L 0 700 L 0 400 L 200 400 L 200 500 Z " fill="rgb(38,38,38)"/><path d=" M 0 400 L 0 200 L 100 300 L 200 400 L 0 400 Z " fill="rgb(38,38,38)"/><path d=" M 0 400 L 0 600 L 100 500 L 200 400 L 0 400 Z " fill="rgb(56,56,56)"/><path d=" M 400 400 L 400 600 L 300 500 L 200 400 L 400 400 Z " fill="rgb(43,43,43)"/><path d=" M 400 400 L 400 200 L 300 300 L 200 400 L 400 400 Z " fill="rgb(38,38,38)"/><g id="Background"/><polygon points="0,100,400,100,200,300" fill="rgb(34,34,34)"/><polygon points="400,700,0,700,200,500" fill="rgb(34,34,34)"/><polygon points="0,500,0,300,100,400" fill="rgb(34,34,34)"/><polygon points="400,300,400,500,300,400" fill="rgb(34,34,34)"/></g></g></svg>